<?xml version="1.0" encoding="UTF-8"?>
<!DOCTYPE svg PUBLIC "-//W3C//DTD SVG 1.1//EN" "http://www.w3.org/Graphics/SVG/1.1/DTD/svg11.dtd">
<svg xmlns="http://www.w3.org/2000/svg" version="1.1" width="256px" height="256px" style="shape-rendering:geometricPrecision; text-rendering:geometricPrecision; image-rendering:optimizeQuality; fill-rule:evenodd; clip-rule:evenodd" xmlns:xlink="http://www.w3.org/1999/xlink">
<g><path style="opacity:0.992" fill="#e5dc3b" d="M 128.5,14.5 C 115.571,16.1649 102.571,18.8315 89.5,22.5C 88.8333,22.5 88.1667,22.5 87.5,22.5C 100.559,17.3755 114.226,14.7089 128.5,14.5 Z"/></g>
<g><path style="opacity:0.902" fill="#c76ae9" d="M 143.5,16.5 C 152.698,17.2388 161.365,19.5721 169.5,23.5C 169.5,23.8333 169.5,24.1667 169.5,24.5C 160.173,21.7052 151.506,19.0385 143.5,16.5 Z"/></g>
<g><path style="opacity:1" fill="#0e1021" d="M 201.5,62.5 C 199.876,62.3601 198.71,63.0267 198,64.5C 197.417,62.9984 196.584,61.6651 195.5,60.5C 192.379,59.7739 189.713,58.2739 187.5,56C 181.813,54.0787 176.48,52.2453 171.5,50.5C 169.937,49.0552 168.604,47.3885 167.5,45.5C 168.404,44.791 168.737,43.791 168.5,42.5C 169.978,42.762 171.311,42.4287 172.5,41.5C 170.807,40.7717 169.307,39.7717 168,38.5C 167.326,39.5784 166.326,40.2451 165,40.5C 161.078,37.2201 156.745,34.5534 152,32.5C 151.517,33.448 151.351,34.448 151.5,35.5C 149.318,33.9119 146.818,32.9119 144,32.5C 138.605,33.0115 133.438,34.3448 128.5,36.5C 127.449,38.8444 125.782,40.5111 123.5,41.5C 122.791,38.9037 123.125,36.237 124.5,33.5C 130.515,30.7458 136.849,29.0791 143.5,28.5C 148.57,27.5061 153.57,28.0061 158.5,30C 176.571,36.2806 190.904,47.114 201.5,62.5 Z"/></g>
<g><path style="opacity:0.91" fill="#f2b11a" d="M 87.5,22.5 C 88.1667,22.5 88.8333,22.5 89.5,22.5C 82.8987,25.8007 76.232,29.134 69.5,32.5C 69.5,32.1667 69.5,31.8333 69.5,31.5C 74.9031,27.4651 80.9031,24.4651 87.5,22.5 Z"/></g>
<g><path style="opacity:0.078" fill="#e02be7" d="M 169.5,23.5 C 182.4,28.0875 193.733,35.0875 203.5,44.5C 203.5,45.1667 203.167,45.5 202.5,45.5C 192.615,36.7256 181.615,29.7256 169.5,24.5C 169.5,24.1667 169.5,23.8333 169.5,23.5 Z"/></g>
<g><path style="opacity:1" fill="#484b59" d="M 128.5,14.5 C 133.602,15.1205 138.602,15.7872 143.5,16.5C 151.506,19.0385 160.173,21.7052 169.5,24.5C 181.615,29.7256 192.615,36.7256 202.5,45.5C 207.872,50.8698 212.872,56.5365 217.5,62.5C 209.739,57.6012 202.739,51.1012 196.5,43C 194.423,41.295 192.09,40.1283 189.5,39.5C 167.45,23.9143 142.784,17.4143 115.5,20C 109.846,20.2874 104.512,21.4541 99.5,23.5C 93.5913,26.9219 87.2579,29.5886 80.5,31.5C 67.012,36.7822 55.512,45.1155 46,56.5C 40.0445,63.9823 35.7112,72.3156 33,81.5C 21.4299,102.335 17.7633,124.669 22,148.5C 23.9969,155.162 25.9969,161.829 28,168.5C 28.3768,169.942 29.2101,170.942 30.5,171.5C 31.5091,174.049 32.3425,176.715 33,179.5C 35.7512,183.402 38.2512,187.402 40.5,191.5C 37.8328,189.211 35.1661,186.878 32.5,184.5C 28.7429,175.309 25.2429,165.976 22,156.5C 17.126,136.009 17.4594,115.675 23,95.5C 26.6511,85.5395 30.8177,75.8728 35.5,66.5C 38.0846,61.9092 41.0846,57.5758 44.5,53.5C 51.9802,45.342 60.3135,38.342 69.5,32.5C 76.232,29.134 82.8987,25.8007 89.5,22.5C 102.571,18.8315 115.571,16.1649 128.5,14.5 Z"/></g>
<g><path style="opacity:1" fill="#090b1e" d="M 167.5,45.5 C 163.438,45.4636 159.272,44.7969 155,43.5C 153.433,45.1684 151.766,45.5017 150,44.5C 148.216,45.3091 146.383,45.9757 144.5,46.5C 138.654,46.5082 132.654,46.3415 126.5,46C 124.859,44.871 123.859,43.371 123.5,41.5C 125.782,40.5111 127.449,38.8444 128.5,36.5C 133.438,34.3448 138.605,33.0115 144,32.5C 146.818,32.9119 149.318,33.9119 151.5,35.5C 151.351,34.448 151.517,33.448 152,32.5C 156.745,34.5534 161.078,37.2201 165,40.5C 166.326,40.2451 167.326,39.5784 168,38.5C 169.307,39.7717 170.807,40.7717 172.5,41.5C 171.311,42.4287 169.978,42.762 168.5,42.5C 168.737,43.791 168.404,44.791 167.5,45.5 Z"/></g>
<g><path style="opacity:1" fill="#121430" d="M 99.5,23.5 C 101.833,23.5 104.167,23.5 106.5,23.5C 108.14,24.3201 109.807,25.1534 111.5,26C 110.221,28.4976 110.221,30.9976 111.5,33.5C 108.673,34.1084 106.007,35.1084 103.5,36.5C 100.378,37.5612 97.3777,38.8946 94.5,40.5C 93.9285,38.64 93.9285,36.9733 94.5,35.5C 97.1019,33.1904 100.102,31.3571 103.5,30C 92.1396,33.0135 81.8063,38.1802 72.5,45.5C 71.8262,43.9755 70.8262,42.6422 69.5,41.5C 73.2033,37.9584 76.87,34.6251 80.5,31.5C 87.2579,29.5886 93.5913,26.9219 99.5,23.5 Z"/></g>
<g><path style="opacity:1" fill="#182161" d="M 94.5,35.5 C 93.9285,36.9733 93.9285,38.64 94.5,40.5C 88.3395,43.077 82.6729,46.4104 77.5,50.5C 81.6061,43.727 87.2728,38.727 94.5,35.5 Z"/></g>
<g><path style="opacity:1" fill="#111425" d="M 203.5,61.5 C 203.5,62.8333 203.5,64.1667 203.5,65.5C 202.599,64.7095 201.932,63.7095 201.5,62.5C 190.904,47.114 176.571,36.2806 158.5,30C 153.57,28.0061 148.57,27.5061 143.5,28.5C 132.593,27.5516 121.926,29.2183 111.5,33.5C 110.221,30.9976 110.221,28.4976 111.5,26C 109.807,25.1534 108.14,24.3201 106.5,23.5C 136.056,18.0973 163.056,24.2639 187.5,42C 192.365,47.2 197.532,52.0334 203,56.5C 202.904,58.3806 203.071,60.0473 203.5,61.5 Z"/></g>
<g><path style="opacity:1" fill="#120d24" d="M 124.5,33.5 C 123.125,36.237 122.791,38.9037 123.5,41.5C 123.859,43.371 124.859,44.871 126.5,46C 132.654,46.3415 138.654,46.5082 144.5,46.5C 146.383,45.9757 148.216,45.3091 150,44.5C 151.766,45.5017 153.433,45.1684 155,43.5C 159.272,44.7969 163.438,45.4636 167.5,45.5C 168.604,47.3885 169.937,49.0552 171.5,50.5C 167.434,51.822 163.267,51.822 159,50.5C 156.929,51.3639 155.262,52.6972 154,54.5C 152.644,53.6198 151.144,53.2865 149.5,53.5C 144.96,51.8492 140.293,51.3492 135.5,52C 137.025,53.0086 138.692,53.5086 140.5,53.5C 143.552,54.9713 146.552,56.638 149.5,58.5C 149.782,61.9097 150.449,65.243 151.5,68.5C 149.602,69.7345 147.935,69.4011 146.5,67.5C 145.28,68.7111 144.113,68.7111 143,67.5C 141.042,68.952 139.042,69.2854 137,68.5C 136.667,69.1667 136.333,69.8333 136,70.5C 134.307,69.8155 132.807,68.8155 131.5,67.5C 130.549,68.3256 129.549,68.4922 128.5,68C 128.833,67.6667 129.167,67.3333 129.5,67C 127.079,64.3648 125.412,61.6982 124.5,59C 125.428,58.6121 126.095,57.9454 126.5,57C 125.381,54.1976 123.381,52.6976 120.5,52.5C 119.902,48.0603 119.402,43.727 119,39.5C 117.037,42.9464 115.704,42.9464 115,39.5C 113.644,40.3802 112.144,40.7135 110.5,40.5C 114.849,37.6589 119.516,35.3255 124.5,33.5 Z"/></g>
<g><path style="opacity:0.843" fill="#ef821d" d="M 69.5,31.5 C 69.5,31.8333 69.5,32.1667 69.5,32.5C 60.3135,38.342 51.9802,45.342 44.5,53.5C 44.5,52.8333 44.5,52.1667 44.5,51.5C 51.6737,43.3202 60.007,36.6535 69.5,31.5 Z"/></g>
<g><path style="opacity:1" fill="#226dc3" d="M 94.5,35.5 C 87.2728,38.727 81.6061,43.727 77.5,50.5C 76.1667,51.1667 74.8333,51.8333 73.5,52.5C 71.9699,50.1525 69.9699,49.9859 67.5,52C 63.7813,54.9375 61.7813,58.7708 61.5,63.5C 60.5,64.8333 59.5,66.1667 58.5,67.5C 57.6618,67.1583 57.3284,66.4916 57.5,65.5C 59.2429,61.0162 61.2429,56.6829 63.5,52.5C 66.603,50.3447 69.603,48.0114 72.5,45.5C 81.8063,38.1802 92.1396,33.0135 103.5,30C 100.102,31.3571 97.1019,33.1904 94.5,35.5 Z"/></g>
<g><path style="opacity:1" fill="#5ca8d5" d="M 103.5,36.5 C 99.0803,42.2558 93.747,46.9224 87.5,50.5C 80.8792,55.119 74.5459,60.119 68.5,65.5C 68.6495,64.448 68.4828,63.448 68,62.5C 64.6824,64.3289 61.5157,66.3289 58.5,68.5C 58.5,68.1667 58.5,67.8333 58.5,67.5C 59.5,66.1667 60.5,64.8333 61.5,63.5C 65.5,59.8333 69.5,56.1667 73.5,52.5C 74.8333,51.8333 76.1667,51.1667 77.5,50.5C 82.6729,46.4104 88.3395,43.077 94.5,40.5C 97.3777,38.8946 100.378,37.5612 103.5,36.5 Z"/></g>
<g><path style="opacity:1" fill="#1f1542" d="M 110.5,40.5 C 110.489,42.0174 109.823,43.1841 108.5,44C 109.793,44.49 111.127,44.6567 112.5,44.5C 112.66,46.1992 112.494,47.8659 112,49.5C 106.24,61.2846 97.5732,69.2846 86,73.5C 85.6411,70.4557 84.9745,70.1224 84,72.5C 82.049,70.8629 82.2157,69.3629 84.5,68C 83.944,67.6174 83.6107,67.1174 83.5,66.5C 89.8855,55.1144 98.8855,46.4477 110.5,40.5 Z"/></g>
<g><path style="opacity:1" fill="#1f4591" d="M 73.5,52.5 C 69.5,56.1667 65.5,59.8333 61.5,63.5C 61.7813,58.7708 63.7813,54.9375 67.5,52C 69.9699,49.9859 71.9699,50.1525 73.5,52.5 Z"/></g>
<g><path style="opacity:1" fill="#d6e6eb" d="M 143.5,28.5 C 136.849,29.0791 130.515,30.7458 124.5,33.5C 119.516,35.3255 114.849,37.6589 110.5,40.5C 98.8855,46.4477 89.8855,55.1144 83.5,66.5C 79.3933,72.8199 77.06,79.8199 76.5,87.5C 75.5318,85.3926 75.1984,83.0593 75.5,80.5C 78.108,70.0231 82.108,60.0231 87.5,50.5C 93.747,46.9224 99.0803,42.2558 103.5,36.5C 106.007,35.1084 108.673,34.1084 111.5,33.5C 121.926,29.2183 132.593,27.5516 143.5,28.5 Z"/></g>
<g><path style="opacity:1" fill="#1e1131" d="M 120.5,52.5 C 118.309,58.3835 115.976,64.2168 113.5,70C 113.833,70.3333 114.167,70.6667 114.5,71C 111.588,71.8452 110.588,73.5118 111.5,76C 110.257,77.1545 109.257,78.4878 108.5,80C 108.845,83.3286 109.511,86.8286 110.5,90.5C 108.054,91.3921 107.388,92.8921 108.5,95C 106.007,96.3246 104.84,98.4913 105,101.5C 103.836,101.835 102.503,101.835 101,101.5C 99.6851,103.316 98.1851,104.983 96.5,106.5C 97.9023,107.842 97.5689,108.676 95.5,109C 96.1667,110 96.8333,111 97.5,112C 99.433,112.251 101.266,112.751 103,113.5C 103.333,113.167 103.667,112.833 104,112.5C 104.5,113.667 105.333,114.5 106.5,115C 105.833,115.333 105.167,115.667 104.5,116C 108.915,119.645 110.915,124.145 110.5,129.5C 110.167,129.5 109.833,129.5 109.5,129.5C 104.544,128.018 99.877,126.018 95.5,123.5C 89.9919,118.848 85.1586,113.515 81,107.5C 78.2881,101.107 76.7881,94.4405 76.5,87.5C 77.06,79.8199 79.3933,72.8199 83.5,66.5C 83.6107,67.1174 83.944,67.6174 84.5,68C 82.2157,69.3629 82.049,70.8629 84,72.5C 84.9745,70.1224 85.6411,70.4557 86,73.5C 97.5732,69.2846 106.24,61.2846 112,49.5C 112.494,47.8659 112.66,46.1992 112.5,44.5C 111.127,44.6567 109.793,44.49 108.5,44C 109.823,43.1841 110.489,42.0174 110.5,40.5C 112.144,40.7135 113.644,40.3802 115,39.5C 115.704,42.9464 117.037,42.9464 119,39.5C 119.402,43.727 119.902,48.0603 120.5,52.5 Z"/></g>
<g><path style="opacity:1" fill="#e683da" d="M 149.5,53.5 C 154.248,55.041 158.581,57.3743 162.5,60.5C 162.44,61.0431 162.107,61.3764 161.5,61.5C 154.784,57.9706 147.784,55.3039 140.5,53.5C 138.692,53.5086 137.025,53.0086 135.5,52C 140.293,51.3492 144.96,51.8492 149.5,53.5 Z"/></g>
<g><path style="opacity:1" fill="#26aad3" d="M 63.5,52.5 C 61.2429,56.6829 59.2429,61.0162 57.5,65.5C 54.2444,67.4123 51.2444,69.7456 48.5,72.5C 51.9681,64.6966 56.9681,58.03 63.5,52.5 Z"/></g>
<g><path style="opacity:1" fill="#6bbfd4" d="M 87.5,50.5 C 82.108,60.0231 78.108,70.0231 75.5,80.5C 73.2736,78.82 71.6069,79.1534 70.5,81.5C 69.8333,81.8333 69.1667,82.1667 68.5,82.5C 66.9505,81.5592 65.2838,80.8925 63.5,80.5C 64.1959,75.0787 65.8626,70.0787 68.5,65.5C 74.5459,60.119 80.8792,55.119 87.5,50.5 Z"/></g>
<g><path style="opacity:1" fill="#1c1329" d="M 120.5,52.5 C 123.381,52.6976 125.381,54.1976 126.5,57C 126.095,57.9454 125.428,58.6121 124.5,59C 125.412,61.6982 127.079,64.3648 129.5,67C 129.167,67.3333 128.833,67.6667 128.5,68C 129.549,68.4922 130.549,68.3256 131.5,67.5C 132.807,68.8155 134.307,69.8155 136,70.5C 136.333,69.8333 136.667,69.1667 137,68.5C 139.042,69.2854 141.042,68.952 143,67.5C 144.113,68.7111 145.28,68.7111 146.5,67.5C 147.935,69.4011 149.602,69.7345 151.5,68.5C 150.449,65.243 149.782,61.9097 149.5,58.5C 159.12,63.6442 167.12,70.6442 173.5,79.5C 175.086,81.6705 176.42,84.0038 177.5,86.5C 175.799,86.0338 174.299,86.0338 173,86.5C 171.487,82.1113 169.32,78.1113 166.5,74.5C 160.656,74.3046 154.823,73.3046 149,71.5C 148.395,73.4812 147.395,73.8146 146,72.5C 144.686,73.3128 143.519,74.3128 142.5,75.5C 138.693,75.0505 135.359,76.3839 132.5,79.5C 131.833,79.1667 131.167,78.8333 130.5,78.5C 130.891,79.8905 130.058,80.8905 128,81.5C 125.63,81.8065 123.13,81.4731 120.5,80.5C 119.164,78.9897 117.997,77.3231 117,75.5C 116.346,74.3044 115.846,74.3044 115.5,75.5C 117.779,79.0608 119.779,82.7274 121.5,86.5C 125.77,96.711 129.77,107.044 133.5,117.5C 130.587,123.415 125.92,127.081 119.5,128.5C 120.292,126.743 121.625,125.409 123.5,124.5C 122.509,122.877 123.176,121.877 125.5,121.5C 126.086,121.709 126.586,122.043 127,122.5C 128.167,120.667 129.667,119.167 131.5,118C 128.833,117.333 128.833,116.667 131.5,116C 130.874,115.25 130.374,114.416 130,113.5C 128.249,114.809 126.749,114.475 125.5,112.5C 124.391,113.59 123.391,113.59 122.5,112.5C 123.025,111.808 123.692,111.308 124.5,111C 121.476,109.468 118.976,107.301 117,104.5C 115.175,99.9788 113.008,95.3121 110.5,90.5C 109.511,86.8286 108.845,83.3286 108.5,80C 109.257,78.4878 110.257,77.1545 111.5,76C 110.588,73.5118 111.588,71.8452 114.5,71C 114.167,70.6667 113.833,70.3333 113.5,70C 115.976,64.2168 118.309,58.3835 120.5,52.5 Z"/></g>
<g><path style="opacity:0.546" fill="#f4531e" d="M 44.5,51.5 C 44.5,52.1667 44.5,52.8333 44.5,53.5C 41.0846,57.5758 38.0846,61.9092 35.5,66.5C 31.4253,71.6372 28.092,77.3038 25.5,83.5C 24.8333,83.5 24.1667,83.5 23.5,83.5C 28.9611,71.7282 35.9611,61.0615 44.5,51.5 Z"/></g>
<g><path style="opacity:1" fill="#1a1125" d="M 171.5,50.5 C 176.48,52.2453 181.813,54.0787 187.5,56C 189.713,58.2739 192.379,59.7739 195.5,60.5C 196.584,61.6651 197.417,62.9984 198,64.5C 198.71,63.0267 199.876,62.3601 201.5,62.5C 201.932,63.7095 202.599,64.7095 203.5,65.5C 204.549,74.4726 204.716,83.4726 204,92.5C 201.372,90.0765 198.872,87.7432 196.5,85.5C 195.325,81.8174 193.659,78.4841 191.5,75.5C 190.286,72.0698 188.786,68.7365 187,65.5C 186.346,64.3044 185.846,64.3044 185.5,65.5C 187.888,71.5884 190.221,77.5884 192.5,83.5C 192.225,85.8418 191.392,85.8418 190,83.5C 184.115,72.9582 176.282,64.4582 166.5,58C 169.754,60.7468 172.42,63.9135 174.5,67.5C 171.765,66.5685 169.099,64.7352 166.5,62C 165.255,61.2086 163.922,60.7086 162.5,60.5C 158.581,57.3743 154.248,55.041 149.5,53.5C 151.144,53.2865 152.644,53.6198 154,54.5C 155.262,52.6972 156.929,51.3639 159,50.5C 163.267,51.822 167.434,51.822 171.5,50.5 Z"/></g>
<g><path style="opacity:1" fill="#1c2130" d="M 189.5,39.5 C 198.392,47.5604 206.892,56.2271 215,65.5C 217.128,70.4174 219.795,75.0841 223,79.5C 224.79,83.3268 225.956,87.3268 226.5,91.5C 227.167,93.8194 227.334,96.1527 227,98.5C 224.956,91.409 221.623,85.0757 217,79.5C 214.449,71.8158 209.949,65.8158 203.5,61.5C 203.071,60.0473 202.904,58.3806 203,56.5C 197.532,52.0334 192.365,47.2 187.5,42C 163.056,24.2639 136.056,18.0973 106.5,23.5C 104.167,23.5 101.833,23.5 99.5,23.5C 104.512,21.4541 109.846,20.2874 115.5,20C 142.784,17.4143 167.45,23.9143 189.5,39.5 Z"/></g>
<g><path style="opacity:1" fill="#da3469" d="M 140.5,53.5 C 147.784,55.3039 154.784,57.9706 161.5,61.5C 162.107,61.3764 162.44,61.0431 162.5,60.5C 163.922,60.7086 165.255,61.2086 166.5,62C 169.099,64.7352 171.765,66.5685 174.5,67.5C 177.422,71.6006 180.589,75.6006 184,79.5C 185.761,82.4111 187.261,85.4111 188.5,88.5C 185.185,86.1919 181.851,83.8586 178.5,81.5C 177.07,80.4625 175.403,79.7959 173.5,79.5C 167.12,70.6442 159.12,63.6442 149.5,58.5C 146.552,56.638 143.552,54.9713 140.5,53.5 Z"/></g>
<g><path style="opacity:1" fill="#acdee3" d="M 68.5,65.5 C 65.8626,70.0787 64.1959,75.0787 63.5,80.5C 62.1667,80.5 60.8333,80.5 59.5,80.5C 58.7375,79.7321 57.7375,79.2321 56.5,79C 57.3837,76.4331 57.0504,73.9331 55.5,71.5C 56.1667,70.1667 57.1667,69.1667 58.5,68.5C 61.5157,66.3289 64.6824,64.3289 68,62.5C 68.4828,63.448 68.6495,64.448 68.5,65.5 Z"/></g>
<g><path style="opacity:0.655" fill="#f11c9a" d="M 203.5,44.5 C 214.273,54.0472 222.606,65.3806 228.5,78.5C 228.5,79.1667 228.5,79.8333 228.5,80.5C 225.581,74.3225 221.914,68.6559 217.5,63.5C 217.5,63.1667 217.5,62.8333 217.5,62.5C 212.872,56.5365 207.872,50.8698 202.5,45.5C 203.167,45.5 203.5,45.1667 203.5,44.5 Z"/></g>
<g><path style="opacity:1" fill="#1d1527" d="M 177.5,86.5 C 178.11,87.391 178.443,88.391 178.5,89.5C 177.751,90.531 177.085,91.6976 176.5,93C 178.181,94.9455 178.848,96.9455 178.5,99C 177.175,98.8516 176.008,99.0183 175,99.5C 169.998,95.8272 165.332,91.8272 161,87.5C 160.333,88.1667 159.667,88.8333 159,89.5C 156.677,86.8739 154.343,84.2072 152,81.5C 151.374,83.9913 150.541,83.9913 149.5,81.5C 148.809,84.9432 148.309,88.2765 148,91.5C 149,92.8333 150,92.8333 151,91.5C 152.976,92.5433 153.476,93.8767 152.5,95.5C 155.797,96.1424 156.131,97.3091 153.5,99C 154.5,99.3333 155.5,99.6667 156.5,100C 155.346,100.914 155.513,101.747 157,102.5C 157.333,102.167 157.667,101.833 158,101.5C 158.707,103.081 159.54,104.581 160.5,106C 159.584,106.374 158.75,106.874 158,107.5C 154.526,104.189 150.859,103.523 147,105.5C 143.974,104.128 140.807,103.462 137.5,103.5C 132.089,95.6934 126.422,88.0267 120.5,80.5C 123.13,81.4731 125.63,81.8065 128,81.5C 130.058,80.8905 130.891,79.8905 130.5,78.5C 131.167,78.8333 131.833,79.1667 132.5,79.5C 135.359,76.3839 138.693,75.0505 142.5,75.5C 143.519,74.3128 144.686,73.3128 146,72.5C 147.395,73.8146 148.395,73.4812 149,71.5C 154.823,73.3046 160.656,74.3046 166.5,74.5C 169.32,78.1113 171.487,82.1113 173,86.5C 174.299,86.0338 175.799,86.0338 177.5,86.5 Z"/></g>
<g><path style="opacity:1" fill="#b65e2f" d="M 191.5,75.5 C 192.092,78.1272 192.425,80.7938 192.5,83.5C 190.221,77.5884 187.888,71.5884 185.5,65.5C 185.846,64.3044 186.346,64.3044 187,65.5C 188.786,68.7365 190.286,72.0698 191.5,75.5 Z"/></g>
<g><path style="opacity:1" fill="#66616c" d="M 35.5,66.5 C 30.8177,75.8728 26.6511,85.5395 23,95.5C 17.4594,115.675 17.126,136.009 22,156.5C 25.2429,165.976 28.7429,175.309 32.5,184.5C 28.9899,178.813 25.9899,172.813 23.5,166.5C 13.5412,138.529 14.2079,110.863 25.5,83.5C 28.092,77.3038 31.4253,71.6372 35.5,66.5 Z"/></g>
<g><path style="opacity:1" fill="#1e1825" d="M 178.5,89.5 C 182.181,95.5417 183.847,102.208 183.5,109.5C 182.312,108.316 181.145,108.316 180,109.5C 179.517,108.552 179.351,107.552 179.5,106.5C 174.959,106.331 174.626,106.998 178.5,108.5C 175.61,109.44 173.277,111.107 171.5,113.5C 169.845,107.976 166.512,106.476 161.5,109C 163.522,115.292 164.355,122.125 164,129.5C 163.08,126.899 162.413,124.232 162,121.5C 161.617,120.944 161.117,120.611 160.5,120.5C 155.648,112.655 148.648,107.988 139.5,106.5C 138.833,105.5 138.167,104.5 137.5,103.5C 140.807,103.462 143.974,104.128 147,105.5C 150.859,103.523 154.526,104.189 158,107.5C 158.75,106.874 159.584,106.374 160.5,106C 159.54,104.581 158.707,103.081 158,101.5C 157.667,101.833 157.333,102.167 157,102.5C 155.513,101.747 155.346,100.914 156.5,100C 155.5,99.6667 154.5,99.3333 153.5,99C 156.131,97.3091 155.797,96.1424 152.5,95.5C 153.476,93.8767 152.976,92.5433 151,91.5C 150,92.8333 149,92.8333 148,91.5C 148.309,88.2765 148.809,84.9432 149.5,81.5C 150.541,83.9913 151.374,83.9913 152,81.5C 154.343,84.2072 156.677,86.8739 159,89.5C 159.667,88.8333 160.333,88.1667 161,87.5C 165.332,91.8272 169.998,95.8272 175,99.5C 176.008,99.0183 177.175,98.8516 178.5,99C 178.848,96.9455 178.181,94.9455 176.5,93C 177.085,91.6976 177.751,90.531 178.5,89.5 Z"/></g>
<g><path style="opacity:1" fill="#1f283a" d="M 80.5,31.5 C 76.87,34.6251 73.2033,37.9584 69.5,41.5C 70.8262,42.6422 71.8262,43.9755 72.5,45.5C 69.603,48.0114 66.603,50.3447 63.5,52.5C 56.9681,58.03 51.9681,64.6966 48.5,72.5C 45.6298,79.7789 42.9631,87.1123 40.5,94.5C 40.2642,91.0861 39.5975,87.7527 38.5,84.5C 37.5041,90.4632 37.1707,96.4632 37.5,102.5C 37.779,107.227 38.4456,111.893 39.5,116.5C 39.728,118.355 39.0613,119.188 37.5,119C 35.8767,116.92 34.3767,114.754 33,112.5C 32.6667,119.5 32.3333,126.5 32,133.5C 31.2874,129.071 29.2874,125.404 26,122.5C 25.6258,123.416 25.1258,124.25 24.5,125C 24.4458,131.69 24.6124,138.523 25,145.5C 27.1351,154.103 28.9684,162.77 30.5,171.5C 29.2101,170.942 28.3768,169.942 28,168.5C 25.9969,161.829 23.9969,155.162 22,148.5C 17.7633,124.669 21.4299,102.335 33,81.5C 35.7112,72.3156 40.0445,63.9823 46,56.5C 55.512,45.1155 67.012,36.7822 80.5,31.5 Z"/></g>
<g><path style="opacity:1" fill="#1a1c21" d="M 203.5,61.5 C 209.949,65.8158 214.449,71.8158 217,79.5C 221.623,85.0757 224.956,91.409 227,98.5C 227.334,96.1527 227.167,93.8194 226.5,91.5C 228.535,94.8553 230.201,98.5219 231.5,102.5C 234.4,115.334 235.233,128.334 234,141.5C 230.909,151.368 227.742,161.202 224.5,171C 220.436,176.311 216.77,181.811 213.5,187.5C 212.267,185.204 210.267,183.87 207.5,183.5C 206.5,183.5 205.5,183.5 204.5,183.5C 204.5,182.5 204.5,181.5 204.5,180.5C 207.041,180.85 209.374,180.85 211.5,180.5C 215.165,177.667 218.332,174.334 221,170.5C 221.333,170.833 221.667,171.167 222,171.5C 230.244,154.422 233.244,136.422 231,117.5C 230.626,134.724 229.626,134.724 228,117.5C 227.626,115.133 226.459,113.3 224.5,112C 225.424,110.189 226.257,110.355 227,112.5C 227.325,110.447 226.991,108.447 226,106.5C 225,107.833 224,107.833 223,106.5C 222.193,110.449 221.693,110.449 221.5,106.5C 220.448,106.649 219.448,106.483 218.5,106C 217.853,104.391 217.02,102.891 216,101.5C 215.586,101.957 215.086,102.291 214.5,102.5C 213.833,98.3525 213.166,94.3525 212.5,90.5C 212.269,83.9122 210.936,77.5789 208.5,71.5C 207.62,68.7378 206.454,66.0711 205,63.5C 204.833,64.3333 204.667,65.1667 204.5,66C 206.818,76.429 207.151,86.929 205.5,97.5C 204.712,100.887 203.712,104.22 202.5,107.5C 200.813,100.086 198.813,92.7529 196.5,85.5C 198.872,87.7432 201.372,90.0765 204,92.5C 204.716,83.4726 204.549,74.4726 203.5,65.5C 203.5,64.1667 203.5,62.8333 203.5,61.5 Z"/></g>
<g><path style="opacity:1" fill="#75cbcf" d="M 55.5,71.5 C 57.0504,73.9331 57.3837,76.4331 56.5,79C 57.7375,79.2321 58.7375,79.7321 59.5,80.5C 58.5,80.5 57.5,80.5 56.5,80.5C 55.981,90.2151 52.981,98.8817 47.5,106.5C 44.3266,93.647 46.9932,81.9803 55.5,71.5 Z"/></g>
<g><path style="opacity:1" fill="#22152e" d="M 110.5,90.5 C 113.008,95.3121 115.175,99.9788 117,104.5C 118.976,107.301 121.476,109.468 124.5,111C 123.692,111.308 123.025,111.808 122.5,112.5C 123.391,113.59 124.391,113.59 125.5,112.5C 126.749,114.475 128.249,114.809 130,113.5C 130.374,114.416 130.874,115.25 131.5,116C 128.833,116.667 128.833,117.333 131.5,118C 129.667,119.167 128.167,120.667 127,122.5C 126.586,122.043 126.086,121.709 125.5,121.5C 123.176,121.877 122.509,122.877 123.5,124.5C 121.625,125.409 120.292,126.743 119.5,128.5C 118.833,128.5 118.5,128.833 118.5,129.5C 115.833,129.5 113.167,129.5 110.5,129.5C 110.915,124.145 108.915,119.645 104.5,116C 105.167,115.667 105.833,115.333 106.5,115C 105.333,114.5 104.5,113.667 104,112.5C 103.667,112.833 103.333,113.167 103,113.5C 101.266,112.751 99.433,112.251 97.5,112C 96.8333,111 96.1667,110 95.5,109C 97.5689,108.676 97.9023,107.842 96.5,106.5C 98.1851,104.983 99.6851,103.316 101,101.5C 102.503,101.835 103.836,101.835 105,101.5C 104.84,98.4913 106.007,96.3246 108.5,95C 107.388,92.8921 108.054,91.3921 110.5,90.5 Z"/></g>
<g><path style="opacity:1" fill="#f5e726" d="M 208.5,71.5 C 210.936,77.5789 212.269,83.9122 212.5,90.5C 212.5,95.8333 212.5,101.167 212.5,106.5C 210.989,104.524 210.156,102.191 210,99.5C 209.849,91.0904 209.015,82.7571 207.5,74.5C 207.52,73.2739 207.853,72.2739 208.5,71.5 Z"/></g>
<g><path style="opacity:1" fill="#e1c553" d="M 191.5,75.5 C 193.659,78.4841 195.325,81.8174 196.5,85.5C 198.813,92.7529 200.813,100.086 202.5,107.5C 202.657,108.873 202.49,110.207 202,111.5C 199.376,104.337 197.376,97.004 196,89.5C 195.059,87.2726 193.892,85.2726 192.5,83.5C 192.425,80.7938 192.092,78.1272 191.5,75.5 Z"/></g>
<g><path style="opacity:1" fill="#cd4752" d="M 173.5,79.5 C 175.403,79.7959 177.07,80.4625 178.5,81.5C 177.957,81.56 177.624,81.8933 177.5,82.5C 180.413,85.3216 182.58,88.6549 184,92.5C 185.044,99.4832 185.877,106.483 186.5,113.5C 185.833,117.167 185.167,120.833 184.5,124.5C 184.817,120.298 184.483,116.298 183.5,112.5C 183.5,111.5 183.5,110.5 183.5,109.5C 183.847,102.208 182.181,95.5417 178.5,89.5C 178.443,88.391 178.11,87.391 177.5,86.5C 176.42,84.0038 175.086,81.6705 173.5,79.5 Z"/></g>
<g><path style="opacity:1" fill="#2f686e" d="M 121.5,86.5 C 125.983,92.119 129.983,98.119 133.5,104.5C 134.15,109.344 134.484,114.177 134.5,119C 133.405,124.77 130.072,128.77 124.5,131C 122.305,131.409 120.305,130.909 118.5,129.5C 118.5,128.833 118.833,128.5 119.5,128.5C 125.92,127.081 130.587,123.415 133.5,117.5C 129.77,107.044 125.77,96.711 121.5,86.5 Z"/></g>
<g><path style="opacity:1" fill="#19517c" d="M 57.5,65.5 C 57.3284,66.4916 57.6618,67.1583 58.5,67.5C 58.5,67.8333 58.5,68.1667 58.5,68.5C 57.1667,69.1667 56.1667,70.1667 55.5,71.5C 46.9932,81.9803 44.3266,93.647 47.5,106.5C 48.5612,109.622 49.8946,112.622 51.5,115.5C 51.2178,116.778 50.5511,117.778 49.5,118.5C 47.847,118.66 46.5137,119.326 45.5,120.5C 44.5041,120.414 43.6708,120.748 43,121.5C 41.8111,119.767 40.6444,118.1 39.5,116.5C 38.4456,111.893 37.779,107.227 37.5,102.5C 39.8356,104.004 41.669,106.004 43,108.5C 43.1326,103.689 42.2992,99.0225 40.5,94.5C 42.9631,87.1123 45.6298,79.7789 48.5,72.5C 51.2444,69.7456 54.2444,67.4123 57.5,65.5 Z"/></g>
<g><path style="opacity:1" fill="#191f1c" d="M 212.5,90.5 C 213.166,94.3525 213.833,98.3525 214.5,102.5C 215.086,102.291 215.586,101.957 216,101.5C 217.02,102.891 217.853,104.391 218.5,106C 219.448,106.483 220.448,106.649 221.5,106.5C 221.693,110.449 222.193,110.449 223,106.5C 224,107.833 225,107.833 226,106.5C 226.991,108.447 227.325,110.447 227,112.5C 226.257,110.355 225.424,110.189 224.5,112C 226.459,113.3 227.626,115.133 228,117.5C 229.626,134.724 230.626,134.724 231,117.5C 233.244,136.422 230.244,154.422 222,171.5C 221.667,171.167 221.333,170.833 221,170.5C 218.332,174.334 215.165,177.667 211.5,180.5C 214.903,173.222 216.903,165.556 217.5,157.5C 218.794,156.71 219.961,155.71 221,154.5C 224.512,147.051 225.179,139.384 223,131.5C 221.668,129.34 220.168,127.34 218.5,125.5C 219.014,123.488 219.18,121.488 219,119.5C 218.283,120.044 217.783,120.711 217.5,121.5C 216.732,120.737 216.232,119.737 216,118.5C 214.853,119.458 213.853,119.125 213,117.5C 212.517,116.552 212.351,115.552 212.5,114.5C 212.5,111.833 212.5,109.167 212.5,106.5C 212.5,101.167 212.5,95.8333 212.5,90.5 Z"/></g>
<g><path style="opacity:1" fill="#3eadbe" d="M 59.5,80.5 C 60.8333,80.5 62.1667,80.5 63.5,80.5C 65.2838,80.8925 66.9505,81.5592 68.5,82.5C 66.7809,84.9107 65.4476,87.5773 64.5,90.5C 65.3998,92.2387 66.0665,94.072 66.5,96C 65.3172,98.5421 64.3172,101.209 63.5,104C 64.63,107.77 66.63,110.937 69.5,113.5C 70.3814,116.929 72.0481,119.929 74.5,122.5C 74.1667,122.833 73.8333,123.167 73.5,123.5C 69.1817,119.682 65.015,115.682 61,111.5C 60.8333,111.833 60.6667,112.167 60.5,112.5C 61.8333,114.833 61.8333,117.167 60.5,119.5C 61.7878,121.739 62.7878,124.072 63.5,126.5C 58.8357,123.508 54.8357,119.841 51.5,115.5C 49.8946,112.622 48.5612,109.622 47.5,106.5C 52.981,98.8817 55.981,90.2151 56.5,80.5C 57.5,80.5 58.5,80.5 59.5,80.5 Z"/></g>
<g><path style="opacity:1" fill="#236b85" d="M 75.5,80.5 C 75.1984,83.0593 75.5318,85.3926 76.5,87.5C 76.7881,94.4405 78.2881,101.107 81,107.5C 85.1586,113.515 89.9919,118.848 95.5,123.5C 89.6685,121.417 84.6685,118.084 80.5,113.5C 76.2934,108.781 72.6267,103.614 69.5,98C 70.6099,93.5632 71.7765,93.7299 73,98.5C 73.8113,99.9597 74.6446,100.293 75.5,99.5C 71.4799,94.134 69.8132,88.134 70.5,81.5C 71.6069,79.1534 73.2736,78.82 75.5,80.5 Z"/></g>
<g><path style="opacity:1" fill="#2a8caf" d="M 40.5,94.5 C 42.2992,99.0225 43.1326,103.689 43,108.5C 41.669,106.004 39.8356,104.004 37.5,102.5C 37.1707,96.4632 37.5041,90.4632 38.5,84.5C 39.5975,87.7527 40.2642,91.0861 40.5,94.5 Z"/></g>
<g><path style="opacity:1" fill="#e3edec" d="M 120.5,80.5 C 126.422,88.0267 132.089,95.6934 137.5,103.5C 138.167,104.5 138.833,105.5 139.5,106.5C 140.833,108.5 142.167,110.5 143.5,112.5C 145.098,114.698 146.431,117.031 147.5,119.5C 147.387,122.049 148.054,124.382 149.5,126.5C 148.167,128.167 146.833,129.833 145.5,131.5C 144.893,131.376 144.56,131.043 144.5,130.5C 144.328,126.466 143.828,122.466 143,118.5C 142.148,117.429 141.315,116.429 140.5,115.5C 138.403,111.628 136.069,107.961 133.5,104.5C 129.983,98.119 125.983,92.119 121.5,86.5C 119.779,82.7274 117.779,79.0608 115.5,75.5C 115.846,74.3044 116.346,74.3044 117,75.5C 117.997,77.3231 119.164,78.9897 120.5,80.5 Z"/></g>
<g><path style="opacity:1" fill="#ef5d4d" d="M 178.5,81.5 C 181.851,83.8586 185.185,86.1919 188.5,88.5C 190.451,92.6339 191.284,96.9673 191,101.5C 188.284,97.3402 186.784,97.8402 186.5,103C 187.577,106.809 188.577,110.643 189.5,114.5C 188.813,116.177 188.146,117.844 187.5,119.5C 186.539,117.735 186.205,115.735 186.5,113.5C 185.877,106.483 185.044,99.4832 184,92.5C 182.58,88.6549 180.413,85.3216 177.5,82.5C 177.624,81.8933 177.957,81.56 178.5,81.5 Z"/></g>
<g><path style="opacity:1" fill="#1e191e" d="M 183.5,109.5 C 183.5,110.5 183.5,111.5 183.5,112.5C 183.283,116.705 182.617,120.705 181.5,124.5C 181.808,122.076 181.474,119.743 180.5,117.5C 179.069,117.977 177.736,118.643 176.5,119.5C 172.203,128.747 167.537,137.747 162.5,146.5C 161.957,146.44 161.624,146.107 161.5,145.5C 163.09,141.964 163.59,138.297 163,134.5C 161.777,138.615 159.777,142.282 157,145.5C 156.517,144.552 156.351,143.552 156.5,142.5C 161.002,135.809 162.335,128.476 160.5,120.5C 161.117,120.611 161.617,120.944 162,121.5C 162.413,124.232 163.08,126.899 164,129.5C 164.355,122.125 163.522,115.292 161.5,109C 166.512,106.476 169.845,107.976 171.5,113.5C 173.277,111.107 175.61,109.44 178.5,108.5C 174.626,106.998 174.959,106.331 179.5,106.5C 179.351,107.552 179.517,108.552 180,109.5C 181.145,108.316 182.312,108.316 183.5,109.5 Z"/></g>
<g><path style="opacity:1" fill="#eb6336" d="M 192.5,83.5 C 193.892,85.2726 195.059,87.2726 196,89.5C 197.376,97.004 199.376,104.337 202,111.5C 202.49,110.207 202.657,108.873 202.5,107.5C 203.712,104.22 204.712,100.887 205.5,97.5C 205.933,100.285 207.266,102.619 209.5,104.5C 207.33,110.173 204.663,115.506 201.5,120.5C 200.812,117.943 199.646,115.609 198,113.5C 196.63,117.805 194.797,121.805 192.5,125.5C 191.017,127.094 189.517,128.76 188,130.5C 187.501,126.848 187.335,123.182 187.5,119.5C 188.146,117.844 188.813,116.177 189.5,114.5C 188.577,110.643 187.577,106.809 186.5,103C 186.784,97.8402 188.284,97.3402 191,101.5C 191.284,96.9673 190.451,92.6339 188.5,88.5C 187.261,85.4111 185.761,82.4111 184,79.5C 180.589,75.6006 177.422,71.6006 174.5,67.5C 172.42,63.9135 169.754,60.7468 166.5,58C 176.282,64.4582 184.115,72.9582 190,83.5C 191.392,85.8418 192.225,85.8418 192.5,83.5 Z"/></g>
<g><path style="opacity:1" fill="#eeb51f" d="M 208.5,71.5 C 207.853,72.2739 207.52,73.2739 207.5,74.5C 209.015,82.7571 209.849,91.0904 210,99.5C 210.156,102.191 210.989,104.524 212.5,106.5C 212.5,109.167 212.5,111.833 212.5,114.5C 211.607,118.191 210.607,121.858 209.5,125.5C 209.657,124.127 209.49,122.793 209,121.5C 205.534,129.463 200.7,136.463 194.5,142.5C 195.766,137.035 197.433,131.701 199.5,126.5C 200.167,124.5 200.833,122.5 201.5,120.5C 204.663,115.506 207.33,110.173 209.5,104.5C 207.266,102.619 205.933,100.285 205.5,97.5C 207.151,86.929 206.818,76.429 204.5,66C 204.667,65.1667 204.833,64.3333 205,63.5C 206.454,66.0711 207.62,68.7378 208.5,71.5 Z"/></g>
<g><path style="opacity:0.847" fill="#f9297b" d="M 228.5,78.5 C 236.292,93.7668 240.292,110.1 240.5,127.5C 240.097,136.779 238.763,145.779 236.5,154.5C 236.5,152.833 236.5,151.167 236.5,149.5C 241.217,125.6 238.551,102.6 228.5,80.5C 228.5,79.8333 228.5,79.1667 228.5,78.5 Z"/></g>
<g><path style="opacity:1" fill="#fa9c70" d="M 201.5,120.5 C 200.833,122.5 200.167,124.5 199.5,126.5C 196.198,131.403 192.198,135.736 187.5,139.5C 189.564,134.973 191.231,130.307 192.5,125.5C 194.797,121.805 196.63,117.805 198,113.5C 199.646,115.609 200.812,117.943 201.5,120.5 Z"/></g>
<g><path style="opacity:1" fill="#288394" d="M 70.5,81.5 C 69.8132,88.134 71.4799,94.134 75.5,99.5C 74.6446,100.293 73.8113,99.9597 73,98.5C 71.7765,93.7299 70.6099,93.5632 69.5,98C 72.6267,103.614 76.2934,108.781 80.5,113.5C 80.0618,113.435 79.7284,113.601 79.5,114C 82.6651,118.659 85.9984,123.159 89.5,127.5C 87.326,127.25 85.6594,126.25 84.5,124.5C 81.9527,123.001 79.286,121.501 76.5,120C 74.2968,117.628 71.9635,115.461 69.5,113.5C 66.63,110.937 64.63,107.77 63.5,104C 64.3172,101.209 65.3172,98.5421 66.5,96C 66.0665,94.072 65.3998,92.2387 64.5,90.5C 65.4476,87.5773 66.7809,84.9107 68.5,82.5C 69.1667,82.1667 69.8333,81.8333 70.5,81.5 Z"/></g>
<g><path style="opacity:1" fill="#32301a" d="M 212.5,114.5 C 212.351,115.552 212.517,116.552 213,117.5C 213.853,119.125 214.853,119.458 216,118.5C 216.232,119.737 216.732,120.737 217.5,121.5C 216.167,124.5 214.833,127.5 213.5,130.5C 211.53,132.647 209.697,134.98 208,137.5C 207.506,135.866 207.34,134.199 207.5,132.5C 208.612,130.401 209.279,128.067 209.5,125.5C 210.607,121.858 211.607,118.191 212.5,114.5 Z"/></g>
<g><path style="opacity:1" fill="#181d36" d="M 39.5,116.5 C 40.6444,118.1 41.8111,119.767 43,121.5C 43.6708,120.748 44.5041,120.414 45.5,120.5C 47.0667,125.961 49.4,130.961 52.5,135.5C 52.6287,137.216 52.962,138.883 53.5,140.5C 53.4173,142.57 52.4173,142.903 50.5,141.5C 49.1637,142.423 47.8304,142.923 46.5,143C 41.4947,140.822 39.1613,136.988 39.5,131.5C 38.066,133.22 37.2326,135.22 37,137.5C 35.4131,137.342 33.9131,138.009 32.5,139.5C 32.0237,137.934 31.357,137.6 30.5,138.5C 32.9412,143.065 35.6079,147.398 38.5,151.5C 38.1821,157.548 39.5155,163.215 42.5,168.5C 41.8333,168.833 41.1667,169.167 40.5,169.5C 41.7053,170.995 41.7053,172.328 40.5,173.5C 39.1021,171.891 37.4354,171.058 35.5,171C 38.0386,173.37 40.3719,175.87 42.5,178.5C 41.9379,181.051 40.9379,182.718 39.5,183.5C 35.9278,180.74 33.7611,177.073 33,172.5C 32.3292,171.748 31.4959,171.414 30.5,171.5C 28.9684,162.77 27.1351,154.103 25,145.5C 24.6124,138.523 24.4458,131.69 24.5,125C 25.1258,124.25 25.6258,123.416 26,122.5C 29.2874,125.404 31.2874,129.071 32,133.5C 32.3333,126.5 32.6667,119.5 33,112.5C 34.3767,114.754 35.8767,116.92 37.5,119C 39.0613,119.188 39.728,118.355 39.5,116.5 Z"/></g>
<g><path style="opacity:1" fill="#65cfd2" d="M 69.5,113.5 C 71.9635,115.461 74.2968,117.628 76.5,120C 79.286,121.501 81.9527,123.001 84.5,124.5C 79.9981,122.76 79.3314,123.76 82.5,127.5C 82.0431,128.298 81.3764,128.631 80.5,128.5C 79.2794,127.972 78.1127,127.305 77,126.5C 76.3333,127.167 76.3333,127.833 77,128.5C 84.6736,137.593 94.1736,144.093 105.5,148C 103.073,148.902 100.74,149.736 98.5,150.5C 87.7198,146.277 78.0531,140.277 69.5,132.5C 67.1394,130.806 65.1394,128.806 63.5,126.5C 62.7878,124.072 61.7878,121.739 60.5,119.5C 61.8333,117.167 61.8333,114.833 60.5,112.5C 60.6667,112.167 60.8333,111.833 61,111.5C 65.015,115.682 69.1817,119.682 73.5,123.5C 73.8333,123.167 74.1667,122.833 74.5,122.5C 72.0481,119.929 70.3814,116.929 69.5,113.5 Z"/></g>
<g><path style="opacity:1" fill="#1b6e7f" d="M 51.5,115.5 C 54.8357,119.841 58.8357,123.508 63.5,126.5C 65.1394,128.806 67.1394,130.806 69.5,132.5C 72.8983,137.406 76.8983,141.906 81.5,146C 78.639,146.085 75.9724,145.251 73.5,143.5C 73.1667,143.667 72.8333,143.833 72.5,144C 73.8333,145.333 75.1667,146.667 76.5,148C 73.3128,148.108 70.3128,147.275 67.5,145.5C 66.8933,145.624 66.56,145.957 66.5,146.5C 65.7109,146.217 65.0442,145.717 64.5,145C 65.9733,144.29 66.6399,143.124 66.5,141.5C 67.552,141.649 68.552,141.483 69.5,141C 66.1667,138.333 62.8333,135.667 59.5,133C 60.1667,132.667 60.8333,132.333 61.5,132C 57.9632,129.06 55.2965,125.56 53.5,121.5C 52.7638,119.771 51.4305,118.771 49.5,118.5C 50.5511,117.778 51.2178,116.778 51.5,115.5 Z"/></g>
<g><path style="opacity:1" fill="#2292bd" d="M 49.5,118.5 C 51.4305,118.771 52.7638,119.771 53.5,121.5C 54.9899,128.981 57.9899,135.815 62.5,142C 58.8167,140.641 55.4834,138.474 52.5,135.5C 49.4,130.961 47.0667,125.961 45.5,120.5C 46.5137,119.326 47.847,118.66 49.5,118.5 Z"/></g>
<g><path style="opacity:1" fill="#378883" d="M 133.5,104.5 C 136.069,107.961 138.403,111.628 140.5,115.5C 139.188,119.823 137.854,124.156 136.5,128.5C 135.325,128.281 134.325,128.614 133.5,129.5C 132.557,132.109 130.89,134.109 128.5,135.5C 127.833,134.833 127.167,134.167 126.5,133.5C 124.669,134.929 122.669,135.429 120.5,135C 121.167,134.333 121.833,133.667 122.5,133C 117.84,132.587 113.507,131.421 109.5,129.5C 109.833,129.5 110.167,129.5 110.5,129.5C 113.167,129.5 115.833,129.5 118.5,129.5C 120.305,130.909 122.305,131.409 124.5,131C 130.072,128.77 133.405,124.77 134.5,119C 134.484,114.177 134.15,109.344 133.5,104.5 Z"/></g>
<g><path style="opacity:1" fill="#222618" d="M 218.5,125.5 C 220.168,127.34 221.668,129.34 223,131.5C 225.179,139.384 224.512,147.051 221,154.5C 219.961,155.71 218.794,156.71 217.5,157.5C 217.167,156.5 216.5,155.833 215.5,155.5C 213.118,157.046 210.451,157.713 207.5,157.5C 207.5,156.5 207.5,155.5 207.5,154.5C 206.209,154.737 205.209,154.404 204.5,153.5C 210.254,144.659 214.921,135.326 218.5,125.5 Z"/></g>
<g><path style="opacity:1" fill="#7ad6cc" d="M 84.5,124.5 C 85.6594,126.25 87.326,127.25 89.5,127.5C 92.1598,129.497 95.1598,130.997 98.5,132C 106.964,133.625 115.297,135.625 123.5,138C 122.833,138.667 122.167,139.333 121.5,140C 123.437,140.122 124.77,140.955 125.5,142.5C 122.115,144.245 118.448,144.745 114.5,144C 116.332,143.252 117.999,142.252 119.5,141C 119,140.833 118.5,140.667 118,140.5C 114.906,141.566 111.74,142.232 108.5,142.5C 107.761,142.631 107.094,142.464 106.5,142C 108.332,141.252 109.999,140.252 111.5,139C 99.9415,138.876 89.6082,135.376 80.5,128.5C 81.3764,128.631 82.0431,128.298 82.5,127.5C 79.3314,123.76 79.9981,122.76 84.5,124.5 Z"/></g>
<g><path style="opacity:1" fill="#faccae" d="M 186.5,113.5 C 186.205,115.735 186.539,117.735 187.5,119.5C 187.335,123.182 187.501,126.848 188,130.5C 189.517,128.76 191.017,127.094 192.5,125.5C 191.231,130.307 189.564,134.973 187.5,139.5C 186.987,143.553 186.154,147.553 185,151.5C 184.617,152.056 184.117,152.389 183.5,152.5C 183.664,149.813 183.497,147.146 183,144.5C 181.89,146.037 180.39,146.703 178.5,146.5C 179.242,144.02 180.242,141.687 181.5,139.5C 182.883,134.584 183.883,129.584 184.5,124.5C 185.167,120.833 185.833,117.167 186.5,113.5 Z"/></g>
<g><path style="opacity:1" fill="#fade2d" d="M 209.5,125.5 C 209.279,128.067 208.612,130.401 207.5,132.5C 204.765,142.613 199.098,150.947 190.5,157.5C 189.624,157.631 188.957,157.298 188.5,156.5C 190.701,151.891 192.701,147.225 194.5,142.5C 200.7,136.463 205.534,129.463 209,121.5C 209.49,122.793 209.657,124.127 209.5,125.5 Z"/></g>
<g><path style="opacity:1" fill="#5ab2aa" d="M 80.5,113.5 C 84.6685,118.084 89.6685,121.417 95.5,123.5C 99.877,126.018 104.544,128.018 109.5,129.5C 113.507,131.421 117.84,132.587 122.5,133C 121.833,133.667 121.167,134.333 120.5,135C 122.669,135.429 124.669,134.929 126.5,133.5C 127.167,134.167 127.833,134.833 128.5,135.5C 130.89,134.109 132.557,132.109 133.5,129.5C 134.325,128.614 135.325,128.281 136.5,128.5C 137.854,124.156 139.188,119.823 140.5,115.5C 141.315,116.429 142.148,117.429 143,118.5C 143.828,122.466 144.328,126.466 144.5,130.5C 140.389,134.756 135.722,138.589 130.5,142C 128.866,142.494 127.199,142.66 125.5,142.5C 124.77,140.955 123.437,140.122 121.5,140C 122.167,139.333 122.833,138.667 123.5,138C 115.297,135.625 106.964,133.625 98.5,132C 95.1598,130.997 92.1598,129.497 89.5,127.5C 85.9984,123.159 82.6651,118.659 79.5,114C 79.7284,113.601 80.0618,113.435 80.5,113.5 Z"/></g>
<g><path style="opacity:1" fill="#ac3e1b" d="M 183.5,112.5 C 184.483,116.298 184.817,120.298 184.5,124.5C 183.883,129.584 182.883,134.584 181.5,139.5C 176.171,142.668 173.004,147.335 172,153.5C 169.297,156.371 166.464,159.038 163.5,161.5C 164.5,158.833 165.5,156.167 166.5,153.5C 174.385,145.398 179.385,135.732 181.5,124.5C 182.617,120.705 183.283,116.705 183.5,112.5 Z"/></g>
<g><path style="opacity:1" fill="#ecd919" d="M 218.5,125.5 C 214.921,135.326 210.254,144.659 204.5,153.5C 203.197,155.142 201.864,156.809 200.5,158.5C 202.274,150.14 206.107,142.473 212,135.5C 212.608,133.846 213.108,132.179 213.5,130.5C 214.833,127.5 216.167,124.5 217.5,121.5C 217.783,120.711 218.283,120.044 219,119.5C 219.18,121.488 219.014,123.488 218.5,125.5 Z"/></g>
<g><path style="opacity:1" fill="#0b5274" d="M 53.5,121.5 C 55.2965,125.56 57.9632,129.06 61.5,132C 60.8333,132.333 60.1667,132.667 59.5,133C 62.8333,135.667 66.1667,138.333 69.5,141C 68.552,141.483 67.552,141.649 66.5,141.5C 66.6399,143.124 65.9733,144.29 64.5,145C 65.0442,145.717 65.7109,146.217 66.5,146.5C 69.4729,148.806 72.1395,151.473 74.5,154.5C 68.9403,153.369 63.607,151.536 58.5,149C 56.933,146.021 55.2663,143.188 53.5,140.5C 52.962,138.883 52.6287,137.216 52.5,135.5C 55.4834,138.474 58.8167,140.641 62.5,142C 57.9899,135.815 54.9899,128.981 53.5,121.5 Z"/></g>
<g><path style="opacity:1" fill="#2c2886" d="M 32.5,139.5 C 34.1667,142.167 35.8333,144.833 37.5,147.5C 37.8333,148.833 38.1667,150.167 38.5,151.5C 35.6079,147.398 32.9412,143.065 30.5,138.5C 31.357,137.6 32.0237,137.934 32.5,139.5 Z"/></g>
<g><path style="opacity:1" fill="#cdece9" d="M 80.5,128.5 C 89.6082,135.376 99.9415,138.876 111.5,139C 109.999,140.252 108.332,141.252 106.5,142C 107.094,142.464 107.761,142.631 108.5,142.5C 110.042,143.163 111.709,143.83 113.5,144.5C 111.518,145.216 109.851,146.383 108.5,148C 112.711,149.534 117.044,149.867 121.5,149C 125.809,147.673 130.142,146.506 134.5,145.5C 133.833,146.167 133.167,146.833 132.5,147.5C 124.152,151.171 115.486,153.838 106.5,155.5C 100.011,156.617 93.6781,156.617 87.5,155.5C 93.8495,155.265 100.183,154.765 106.5,154C 104.807,153.153 103.14,152.32 101.5,151.5C 100.391,151.443 99.391,151.11 98.5,150.5C 100.74,149.736 103.073,148.902 105.5,148C 94.1736,144.093 84.6736,137.593 77,128.5C 76.3333,127.833 76.3333,127.167 77,126.5C 78.1127,127.305 79.2794,127.972 80.5,128.5 Z"/></g>
<g><path style="opacity:1" fill="#9dd1c5" d="M 147.5,119.5 C 149.223,121.253 150.723,123.253 152,125.5C 149.677,135.005 143.843,141.672 134.5,145.5C 130.142,146.506 125.809,147.673 121.5,149C 117.044,149.867 112.711,149.534 108.5,148C 109.851,146.383 111.518,145.216 113.5,144.5C 111.709,143.83 110.042,143.163 108.5,142.5C 111.74,142.232 114.906,141.566 118,140.5C 118.5,140.667 119,140.833 119.5,141C 117.999,142.252 116.332,143.252 114.5,144C 118.448,144.745 122.115,144.245 125.5,142.5C 127.199,142.66 128.866,142.494 130.5,142C 135.722,138.589 140.389,134.756 144.5,130.5C 144.56,131.043 144.893,131.376 145.5,131.5C 146.833,129.833 148.167,128.167 149.5,126.5C 148.054,124.382 147.387,122.049 147.5,119.5 Z"/></g>
<g><path style="opacity:1" fill="#42424d" d="M 143.5,112.5 C 145.39,112.297 146.89,112.963 148,114.5C 157.645,128.594 154.811,139.428 139.5,147C 137.19,147.497 134.857,147.663 132.5,147.5C 133.167,146.833 133.833,146.167 134.5,145.5C 143.843,141.672 149.677,135.005 152,125.5C 150.723,123.253 149.223,121.253 147.5,119.5C 146.431,117.031 145.098,114.698 143.5,112.5 Z"/></g>
<g><path style="opacity:0.616" fill="#f73069" d="M 23.5,83.5 C 24.1667,83.5 24.8333,83.5 25.5,83.5C 14.2079,110.863 13.5412,138.529 23.5,166.5C 22.8333,166.5 22.1667,166.5 21.5,166.5C 11.8581,138.585 12.5248,110.919 23.5,83.5 Z"/></g>
<g><path style="opacity:1" fill="#31b8b5" d="M 69.5,132.5 C 78.0531,140.277 87.7198,146.277 98.5,150.5C 99.391,151.11 100.391,151.443 101.5,151.5C 95.2634,152.446 88.9301,152.113 82.5,150.5C 82.1667,150.667 81.8333,150.833 81.5,151C 83.6175,152.049 85.2842,153.549 86.5,155.5C 84.5,155.5 82.5,155.5 80.5,155.5C 78.4352,155.483 76.4352,155.15 74.5,154.5C 72.1395,151.473 69.4729,148.806 66.5,146.5C 66.56,145.957 66.8933,145.624 67.5,145.5C 70.3128,147.275 73.3128,148.108 76.5,148C 75.1667,146.667 73.8333,145.333 72.5,144C 72.8333,143.833 73.1667,143.667 73.5,143.5C 75.9724,145.251 78.639,146.085 81.5,146C 76.8983,141.906 72.8983,137.406 69.5,132.5 Z"/></g>
<g><path style="opacity:1" fill="#1f2643" d="M 53.5,140.5 C 55.2663,143.188 56.933,146.021 58.5,149C 63.607,151.536 68.9403,153.369 74.5,154.5C 76.4352,155.15 78.4352,155.483 80.5,155.5C 80.6309,156.376 80.2975,157.043 79.5,157.5C 76.4701,158.432 73.6368,159.765 71,161.5C 70.7083,163.326 70.875,165.159 71.5,167C 71.6134,168.699 70.9468,169.866 69.5,170.5C 68.8333,170.5 68.1667,170.5 67.5,170.5C 56.3849,164.397 46.3849,156.73 37.5,147.5C 35.8333,144.833 34.1667,142.167 32.5,139.5C 33.9131,138.009 35.4131,137.342 37,137.5C 37.2326,135.22 38.066,133.22 39.5,131.5C 39.1613,136.988 41.4947,140.822 46.5,143C 47.8304,142.923 49.1637,142.423 50.5,141.5C 52.4173,142.903 53.4173,142.57 53.5,140.5 Z"/></g>
<g><path style="opacity:1" fill="#2f292f" d="M 139.5,106.5 C 148.648,107.988 155.648,112.655 160.5,120.5C 162.335,128.476 161.002,135.809 156.5,142.5C 152.8,146.208 148.8,149.708 144.5,153C 134.312,153.871 124.312,155.705 114.5,158.5C 111.274,158.652 108.607,157.652 106.5,155.5C 115.486,153.838 124.152,151.171 132.5,147.5C 134.857,147.663 137.19,147.497 139.5,147C 154.811,139.428 157.645,128.594 148,114.5C 146.89,112.963 145.39,112.297 143.5,112.5C 142.167,110.5 140.833,108.5 139.5,106.5 Z"/></g>
<g><path style="opacity:1" fill="#fcde91" d="M 199.5,126.5 C 197.433,131.701 195.766,137.035 194.5,142.5C 192.701,147.225 190.701,151.891 188.5,156.5C 188.957,157.298 189.624,157.631 190.5,157.5C 189.564,158.974 188.23,159.974 186.5,160.5C 184.983,160.511 183.816,161.177 183,162.5C 182.457,159.132 182.624,155.799 183.5,152.5C 184.117,152.389 184.617,152.056 185,151.5C 186.154,147.553 186.987,143.553 187.5,139.5C 192.198,135.736 196.198,131.403 199.5,126.5 Z"/></g>
<g><path style="opacity:1" fill="#f0a81c" d="M 213.5,130.5 C 213.108,132.179 212.608,133.846 212,135.5C 206.107,142.473 202.274,150.14 200.5,158.5C 198.42,160.573 196.754,162.907 195.5,165.5C 189.879,167.322 184.212,168.989 178.5,170.5C 180.787,166.878 183.453,163.545 186.5,160.5C 188.23,159.974 189.564,158.974 190.5,157.5C 199.098,150.947 204.765,142.613 207.5,132.5C 207.34,134.199 207.506,135.866 208,137.5C 209.697,134.98 211.53,132.647 213.5,130.5 Z"/></g>
<g><path style="opacity:1" fill="#4eede2" d="M 101.5,151.5 C 103.14,152.32 104.807,153.153 106.5,154C 100.183,154.765 93.8495,155.265 87.5,155.5C 87.1667,155.5 86.8333,155.5 86.5,155.5C 85.2842,153.549 83.6175,152.049 81.5,151C 81.8333,150.833 82.1667,150.667 82.5,150.5C 88.9301,152.113 95.2634,152.446 101.5,151.5 Z"/></g>
<g><path style="opacity:1" fill="#252119" d="M 181.5,124.5 C 179.385,135.732 174.385,145.398 166.5,153.5C 154.889,163.972 141.556,171.305 126.5,175.5C 124.833,175.5 123.167,175.5 121.5,175.5C 119.957,174.264 118.957,172.598 118.5,170.5C 110.061,166.154 101.061,164.32 91.5,165C 90.4293,164.148 89.4293,163.315 88.5,162.5C 90.4181,161.132 92.5848,160.132 95,159.5C 98.3123,161.317 101.646,162.984 105,164.5C 108.03,164.382 111.197,164.215 114.5,164C 115.76,162.887 116.927,162.72 118,163.5C 118.915,162.672 119.581,161.672 120,160.5C 121,160.833 122,161.167 123,161.5C 131.24,159.06 139.407,157.227 147.5,156C 152.417,152.989 152.75,153.822 148.5,158.5C 149,158.833 149.5,159.167 150,159.5C 155.523,156.44 159.69,152.107 162.5,146.5C 167.537,137.747 172.203,128.747 176.5,119.5C 177.736,118.643 179.069,117.977 180.5,117.5C 181.474,119.743 181.808,122.076 181.5,124.5 Z"/></g>
<g><path style="opacity:1" fill="#2a2726" d="M 162.5,146.5 C 159.69,152.107 155.523,156.44 150,159.5C 149.5,159.167 149,158.833 148.5,158.5C 152.75,153.822 152.417,152.989 147.5,156C 139.407,157.227 131.24,159.06 123,161.5C 122,161.167 121,160.833 120,160.5C 119.581,161.672 118.915,162.672 118,163.5C 116.927,162.72 115.76,162.887 114.5,164C 111.197,164.215 108.03,164.382 105,164.5C 101.646,162.984 98.3123,161.317 95,159.5C 92.5848,160.132 90.4181,161.132 88.5,162.5C 86.8297,162.249 85.3297,161.582 84,160.5C 79.5283,161.922 78.6949,164.422 81.5,168C 80.6721,168.915 79.6721,169.581 78.5,170C 80.0441,170.29 81.3774,170.956 82.5,172C 80.6547,173.128 78.6547,173.628 76.5,173.5C 73.7594,173.293 71.4261,172.293 69.5,170.5C 70.9468,169.866 71.6134,168.699 71.5,167C 70.875,165.159 70.7083,163.326 71,161.5C 73.6368,159.765 76.4701,158.432 79.5,157.5C 80.2975,157.043 80.6309,156.376 80.5,155.5C 82.5,155.5 84.5,155.5 86.5,155.5C 86.8333,155.5 87.1667,155.5 87.5,155.5C 93.6781,156.617 100.011,156.617 106.5,155.5C 108.607,157.652 111.274,158.652 114.5,158.5C 124.312,155.705 134.312,153.871 144.5,153C 148.8,149.708 152.8,146.208 156.5,142.5C 156.351,143.552 156.517,144.552 157,145.5C 159.777,142.282 161.777,138.615 163,134.5C 163.59,138.297 163.09,141.964 161.5,145.5C 161.624,146.107 161.957,146.44 162.5,146.5 Z"/></g>
<g><path style="opacity:1" fill="#693812" d="M 204.5,153.5 C 205.209,154.404 206.209,154.737 207.5,154.5C 207.5,155.5 207.5,156.5 207.5,157.5C 210.451,157.713 213.118,157.046 215.5,155.5C 214.738,157.262 213.404,158.262 211.5,158.5C 209.847,158.66 208.514,159.326 207.5,160.5C 203.495,162.168 199.495,163.835 195.5,165.5C 196.754,162.907 198.42,160.573 200.5,158.5C 201.864,156.809 203.197,155.142 204.5,153.5 Z"/></g>
<g><path style="opacity:0.792" fill="#ed209d" d="M 236.5,149.5 C 236.5,151.167 236.5,152.833 236.5,154.5C 235.437,160.355 233.77,166.021 231.5,171.5C 230.833,171.5 230.167,171.5 229.5,171.5C 232.268,164.2 234.601,156.867 236.5,149.5 Z"/></g>
<g><path style="opacity:1" fill="#2a3528" d="M 88.5,162.5 C 89.4293,163.315 90.4293,164.148 91.5,165C 101.061,164.32 110.061,166.154 118.5,170.5C 118.957,172.598 119.957,174.264 121.5,175.5C 121.5,175.833 121.5,176.167 121.5,176.5C 117.167,177.167 112.833,177.833 108.5,178.5C 101.471,178.623 94.4707,178.29 87.5,177.5C 83.6762,176.626 80.0095,175.293 76.5,173.5C 78.6547,173.628 80.6547,173.128 82.5,172C 81.3774,170.956 80.0441,170.29 78.5,170C 79.6721,169.581 80.6721,168.915 81.5,168C 78.6949,164.422 79.5283,161.922 84,160.5C 85.3297,161.582 86.8297,162.249 88.5,162.5 Z"/></g>
<g><path style="opacity:1" fill="#f16e37" d="M 207.5,160.5 C 203.916,164.304 199.583,167.137 194.5,169C 187.514,171.606 180.514,174.106 173.5,176.5C 173.167,176.5 172.833,176.5 172.5,176.5C 174.167,174.167 176.167,172.167 178.5,170.5C 184.212,168.989 189.879,167.322 195.5,165.5C 199.495,163.835 203.495,162.168 207.5,160.5 Z"/></g>
<g><path style="opacity:1" fill="#2e1c55" d="M 38.5,151.5 C 45.7484,162.75 54.7484,172.417 65.5,180.5C 63.4534,180.511 61.4534,180.844 59.5,181.5C 56.978,180.238 54.3113,179.571 51.5,179.5C 47.3447,178.258 43.678,176.258 40.5,173.5C 41.7053,172.328 41.7053,170.995 40.5,169.5C 41.1667,169.167 41.8333,168.833 42.5,168.5C 39.5155,163.215 38.1821,157.548 38.5,151.5 Z"/></g>
<g><path style="opacity:1" fill="#353943" d="M 189.5,39.5 C 192.09,40.1283 194.423,41.295 196.5,43C 202.739,51.1012 209.739,57.6012 217.5,62.5C 217.5,62.8333 217.5,63.1667 217.5,63.5C 217.995,65.4817 218.495,67.4817 219,69.5C 236.112,95.3139 240.779,123.314 233,153.5C 230.029,160.717 227.362,168.05 225,175.5C 220.432,184.298 215.099,192.631 209,200.5C 207.385,201.386 205.885,202.386 204.5,203.5C 205.818,199.668 208.152,196.501 211.5,194C 210.978,193.439 210.645,192.772 210.5,192C 211.315,190.357 212.315,188.857 213.5,187.5C 216.77,181.811 220.436,176.311 224.5,171C 227.742,161.202 230.909,151.368 234,141.5C 235.233,128.334 234.4,115.334 231.5,102.5C 230.201,98.5219 228.535,94.8553 226.5,91.5C 225.956,87.3268 224.79,83.3268 223,79.5C 219.795,75.0841 217.128,70.4174 215,65.5C 206.892,56.2271 198.392,47.5604 189.5,39.5 Z"/></g>
<g><path style="opacity:1" fill="#bb8e25" d="M 166.5,153.5 C 165.5,156.167 164.5,158.833 163.5,161.5C 158.39,168.896 151.39,173.563 142.5,175.5C 137.399,177.685 132.065,179.018 126.5,179.5C 125.448,179.649 124.448,179.483 123.5,179C 125.167,178 126.833,177 128.5,176C 127.906,175.536 127.239,175.369 126.5,175.5C 141.556,171.305 154.889,163.972 166.5,153.5 Z"/></g>
<g><path style="opacity:1" fill="#31201a" d="M 215.5,155.5 C 216.5,155.833 217.167,156.5 217.5,157.5C 216.903,165.556 214.903,173.222 211.5,180.5C 209.374,180.85 207.041,180.85 204.5,180.5C 202.218,181.39 199.885,181.556 197.5,181C 199,178.167 201.167,176 204,174.5C 204.737,170.793 205.571,167.127 206.5,163.5C 208.5,162.167 210.167,160.5 211.5,158.5C 213.404,158.262 214.738,157.262 215.5,155.5 Z"/></g>
<g><path style="opacity:1" fill="#d2841b" d="M 181.5,139.5 C 180.242,141.687 179.242,144.02 178.5,146.5C 167.366,167.242 150.366,180.576 127.5,186.5C 132.322,182.589 137.322,178.922 142.5,175.5C 151.39,173.563 158.39,168.896 163.5,161.5C 166.464,159.038 169.297,156.371 172,153.5C 173.004,147.335 176.171,142.668 181.5,139.5 Z"/></g>
<g><path style="opacity:1" fill="#68a287" d="M 67.5,170.5 C 68.1667,170.5 68.8333,170.5 69.5,170.5C 71.4261,172.293 73.7594,173.293 76.5,173.5C 80.0095,175.293 83.6762,176.626 87.5,177.5C 88.5981,178.397 88.5981,179.23 87.5,180C 89.9654,182.298 91.632,185.132 92.5,188.5C 93.6888,189.429 95.0222,189.762 96.5,189.5C 96.5,189.833 96.5,190.167 96.5,190.5C 92.4338,190.693 88.4338,190.36 84.5,189.5C 84.6309,188.624 84.2975,187.957 83.5,187.5C 81.2895,186.877 79.2895,185.877 77.5,184.5C 78.3805,183.029 79.7139,182.196 81.5,182C 78.0362,179.953 74.3695,178.287 70.5,177C 68.6487,175.316 66.982,173.483 65.5,171.5C 65.9569,170.702 66.6236,170.369 67.5,170.5 Z"/></g>
<g><path style="opacity:1" fill="#fade6f" d="M 211.5,158.5 C 210.167,160.5 208.5,162.167 206.5,163.5C 205.5,163.833 204.833,164.5 204.5,165.5C 198.143,170.198 191.81,174.865 185.5,179.5C 182.648,181.091 179.648,182.424 176.5,183.5C 175.209,182.458 175.209,181.292 176.5,180C 175.167,179.667 173.833,179.333 172.5,179C 173.252,178.329 173.586,177.496 173.5,176.5C 180.514,174.106 187.514,171.606 194.5,169C 199.583,167.137 203.916,164.304 207.5,160.5C 208.514,159.326 209.847,158.66 211.5,158.5 Z"/></g>
<g><path style="opacity:1" fill="#4e848e" d="M 37.5,147.5 C 46.3849,156.73 56.3849,164.397 67.5,170.5C 66.6236,170.369 65.9569,170.702 65.5,171.5C 66.982,173.483 68.6487,175.316 70.5,177C 74.3695,178.287 78.0362,179.953 81.5,182C 79.7139,182.196 78.3805,183.029 77.5,184.5C 79.2895,185.877 81.2895,186.877 83.5,187.5C 84.2975,187.957 84.6309,188.624 84.5,189.5C 83.5,189.5 82.5,189.5 81.5,189.5C 81.1667,189.5 80.8333,189.5 80.5,189.5C 80.1583,188.662 79.4916,188.328 78.5,188.5C 74.3699,185.597 70.0366,182.93 65.5,180.5C 54.7484,172.417 45.7484,162.75 38.5,151.5C 38.1667,150.167 37.8333,148.833 37.5,147.5 Z"/></g>
<g><path style="opacity:1" fill="#b9b442" d="M 121.5,175.5 C 123.167,175.5 124.833,175.5 126.5,175.5C 127.239,175.369 127.906,175.536 128.5,176C 126.833,177 125.167,178 123.5,179C 124.448,179.483 125.448,179.649 126.5,179.5C 124.024,180.722 121.691,182.222 119.5,184C 120.41,185.749 121.743,186.916 123.5,187.5C 120.054,188.687 116.387,189.354 112.5,189.5C 111.167,189.5 109.833,189.5 108.5,189.5C 108.784,186.746 109.451,184.08 110.5,181.5C 113.503,180.915 116.503,180.248 119.5,179.5C 120.193,178.482 120.859,177.482 121.5,176.5C 121.5,176.167 121.5,175.833 121.5,175.5 Z"/></g>
<g><path style="opacity:1" fill="#fbefd1" d="M 183.5,152.5 C 182.624,155.799 182.457,159.132 183,162.5C 183.816,161.177 184.983,160.511 186.5,160.5C 183.453,163.545 180.787,166.878 178.5,170.5C 176.167,172.167 174.167,174.167 172.5,176.5C 170.116,178.885 167.45,180.885 164.5,182.5C 163.85,182.196 163.183,181.863 162.5,181.5C 152.657,184.121 142.657,185.954 132.5,187C 127.362,189.657 122.028,191.824 116.5,193.5C 112.844,193.129 109.51,192.129 106.5,190.5C 108.735,190.795 110.735,190.461 112.5,189.5C 116.387,189.354 120.054,188.687 123.5,187.5C 124.959,187.567 126.292,187.234 127.5,186.5C 150.366,180.576 167.366,167.242 178.5,146.5C 180.39,146.703 181.89,146.037 183,144.5C 183.497,147.146 183.664,149.813 183.5,152.5 Z"/></g>
<g><path style="opacity:1" fill="#56196b" d="M 51.5,179.5 C 54.3113,179.571 56.978,180.238 59.5,181.5C 61.4534,180.844 63.4534,180.511 65.5,180.5C 70.0366,182.93 74.3699,185.597 78.5,188.5C 68.8117,187.271 59.8117,184.271 51.5,179.5 Z"/></g>
<g><path style="opacity:1" fill="#782922" d="M 204.5,165.5 C 203.97,167.924 203.136,170.257 202,172.5C 196.255,178.452 189.422,182.452 181.5,184.5C 182.833,182.833 184.167,181.167 185.5,179.5C 191.81,174.865 198.143,170.198 204.5,165.5 Z"/></g>
<g><path style="opacity:1" fill="#d7b82d" d="M 142.5,175.5 C 137.322,178.922 132.322,182.589 127.5,186.5C 126.292,187.234 124.959,187.567 123.5,187.5C 121.743,186.916 120.41,185.749 119.5,184C 121.691,182.222 124.024,180.722 126.5,179.5C 132.065,179.018 137.399,177.685 142.5,175.5 Z"/></g>
<g><path style="opacity:1" fill="#fbd283" d="M 172.5,176.5 C 172.833,176.5 173.167,176.5 173.5,176.5C 173.586,177.496 173.252,178.329 172.5,179C 173.833,179.333 175.167,179.667 176.5,180C 175.209,181.292 175.209,182.458 176.5,183.5C 167.717,188.322 158.384,191.988 148.5,194.5C 154.116,190.885 159.45,186.885 164.5,182.5C 167.45,180.885 170.116,178.885 172.5,176.5 Z"/></g>
<g><path style="opacity:1" fill="#7db06e" d="M 87.5,177.5 C 94.4707,178.29 101.471,178.623 108.5,178.5C 105.815,179.628 103.148,180.962 100.5,182.5C 102.005,183.842 102.672,185.508 102.5,187.5C 100.282,187.614 98.2821,188.28 96.5,189.5C 95.0222,189.762 93.6888,189.429 92.5,188.5C 91.632,185.132 89.9654,182.298 87.5,180C 88.5981,179.23 88.5981,178.397 87.5,177.5 Z"/></g>
<g><path style="opacity:1" fill="#4a1f27" d="M 206.5,163.5 C 205.571,167.127 204.737,170.793 204,174.5C 201.167,176 199,178.167 197.5,181C 199.885,181.556 202.218,181.39 204.5,180.5C 204.5,181.5 204.5,182.5 204.5,183.5C 205.5,183.5 206.5,183.5 207.5,183.5C 206.341,185.25 204.674,186.25 202.5,186.5C 199.603,187.129 196.936,188.129 194.5,189.5C 186.604,191.594 178.604,193.261 170.5,194.5C 174.141,191.195 177.808,187.862 181.5,184.5C 189.422,182.452 196.255,178.452 202,172.5C 203.136,170.257 203.97,167.924 204.5,165.5C 204.833,164.5 205.5,163.833 206.5,163.5 Z"/></g>
<g><path style="opacity:0.631" fill="#ec13c8" d="M 229.5,171.5 C 230.167,171.5 230.833,171.5 231.5,171.5C 227.07,181.38 221.403,190.38 214.5,198.5C 214.167,198.5 213.833,198.5 213.5,198.5C 219.578,190.023 224.911,181.023 229.5,171.5 Z"/></g>
<g><path style="opacity:1" fill="#a5b356" d="M 121.5,176.5 C 120.859,177.482 120.193,178.482 119.5,179.5C 116.503,180.248 113.503,180.915 110.5,181.5C 109.451,184.08 108.784,186.746 108.5,189.5C 109.833,189.5 111.167,189.5 112.5,189.5C 110.735,190.461 108.735,190.795 106.5,190.5C 103.833,190.5 101.167,190.5 98.5,190.5C 97.8333,190.5 97.1667,190.5 96.5,190.5C 96.5,190.167 96.5,189.833 96.5,189.5C 98.2821,188.28 100.282,187.614 102.5,187.5C 102.672,185.508 102.005,183.842 100.5,182.5C 103.148,180.962 105.815,179.628 108.5,178.5C 112.833,177.833 117.167,177.167 121.5,176.5 Z"/></g>
<g><path style="opacity:1" fill="#231537" d="M 42.5,178.5 C 44.2303,179.026 45.5637,180.026 46.5,181.5C 46.3505,182.552 46.5172,183.552 47,184.5C 50.7405,190.062 54.2405,195.728 57.5,201.5C 65.4618,206.927 73.6285,212.26 82,217.5C 110.739,230.213 139.906,231.046 169.5,220C 175.089,217.401 180.423,214.401 185.5,211C 186.939,208.167 188.272,205.334 189.5,202.5C 191.757,199.52 193.423,196.187 194.5,192.5C 195.5,192.5 196.5,192.5 197.5,192.5C 197.262,195.408 198.262,197.742 200.5,199.5C 185.786,215.864 167.452,226.031 145.5,230C 100.706,235.424 65.3727,219.924 39.5,183.5C 40.9379,182.718 41.9379,181.051 42.5,178.5 Z"/></g>
<g><path style="opacity:1" fill="#e330b3" d="M 40.5,173.5 C 43.678,176.258 47.3447,178.258 51.5,179.5C 59.8117,184.271 68.8117,187.271 78.5,188.5C 79.4916,188.328 80.1583,188.662 80.5,189.5C 80.1924,191.924 80.5258,194.257 81.5,196.5C 83.3334,197.052 85.0001,197.885 86.5,199C 85.9056,199.464 85.2389,199.631 84.5,199.5C 82.5,199.167 80.5,198.833 78.5,198.5C 78.1667,198.5 77.8333,198.5 77.5,198.5C 72.3797,196.44 67.3797,194.107 62.5,191.5C 56.8303,188.667 51.497,185.334 46.5,181.5C 45.5637,180.026 44.2303,179.026 42.5,178.5C 40.3719,175.87 38.0386,173.37 35.5,171C 37.4354,171.058 39.1021,171.891 40.5,173.5 Z"/></g>
<g><path style="opacity:1" fill="#fbd4a7" d="M 164.5,182.5 C 159.45,186.885 154.116,190.885 148.5,194.5C 147.209,194.263 146.209,194.596 145.5,195.5C 137.18,198.939 128.513,200.939 119.5,201.5C 114.324,201.817 109.324,201.151 104.5,199.5C 105.219,197.112 106.885,195.612 109.5,195C 106.14,192.463 102.473,190.963 98.5,190.5C 101.167,190.5 103.833,190.5 106.5,190.5C 109.51,192.129 112.844,193.129 116.5,193.5C 122.028,191.824 127.362,189.657 132.5,187C 142.657,185.954 152.657,184.121 162.5,181.5C 163.183,181.863 163.85,182.196 164.5,182.5 Z"/></g>
<g><path style="opacity:1" fill="#e54c51" d="M 185.5,179.5 C 184.167,181.167 182.833,182.833 181.5,184.5C 177.808,187.862 174.141,191.195 170.5,194.5C 168.578,195.96 167.911,197.627 168.5,199.5C 164.106,199.844 159.772,200.51 155.5,201.5C 147.048,203.725 139.048,207.059 131.5,211.5C 124.978,211.823 118.645,211.49 112.5,210.5C 117.833,210.5 123.167,210.5 128.5,210.5C 128.5,208.167 128.5,205.833 128.5,203.5C 133.822,202.971 139.156,202.471 144.5,202C 146.097,199.812 146.431,197.646 145.5,195.5C 146.209,194.596 147.209,194.263 148.5,194.5C 158.384,191.988 167.717,188.322 176.5,183.5C 179.648,182.424 182.648,181.091 185.5,179.5 Z"/></g>
<g><path style="opacity:0.637" fill="#f53935" d="M 21.5,166.5 C 22.1667,166.5 22.8333,166.5 23.5,166.5C 25.9899,172.813 28.9899,178.813 32.5,184.5C 37.261,192.34 42.761,199.674 49,206.5C 56.066,212.411 63.2327,218.078 70.5,223.5C 70.1667,223.5 69.8333,223.5 69.5,223.5C 47.0575,210.047 31.0575,191.047 21.5,166.5 Z"/></g>
<g><path style="opacity:1" fill="#2b223d" d="M 30.5,171.5 C 31.4959,171.414 32.3292,171.748 33,172.5C 33.7611,177.073 35.9278,180.74 39.5,183.5C 65.3727,219.924 100.706,235.424 145.5,230C 167.452,226.031 185.786,215.864 200.5,199.5C 198.262,197.742 197.262,195.408 197.5,192.5C 196.5,192.5 195.5,192.5 194.5,192.5C 197.167,190.5 199.833,188.5 202.5,186.5C 204.674,186.25 206.341,185.25 207.5,183.5C 210.267,183.87 212.267,185.204 213.5,187.5C 212.315,188.857 211.315,190.357 210.5,192C 210.645,192.772 210.978,193.439 211.5,194C 208.152,196.501 205.818,199.668 204.5,203.5C 202.544,205.114 200.544,206.781 198.5,208.5C 189.961,214.207 181.294,219.707 172.5,225C 165.285,228.071 157.952,230.737 150.5,233C 138.205,234.51 125.872,234.843 113.5,234C 105.975,231.769 98.3079,230.269 90.5,229.5C 68.9506,223.287 52.2839,210.62 40.5,191.5C 38.2512,187.402 35.7512,183.402 33,179.5C 32.3425,176.715 31.5091,174.049 30.5,171.5 Z"/></g>
<g><path style="opacity:1" fill="#2a123a" d="M 46.5,181.5 C 51.497,185.334 56.8303,188.667 62.5,191.5C 61.0374,193.598 61.2041,195.598 63,197.5C 84.036,218.057 109.203,226.224 138.5,222C 149.461,220.52 160.127,217.854 170.5,214C 174.362,210.9 178.696,208.567 183.5,207C 185.702,205.612 187.702,204.112 189.5,202.5C 188.272,205.334 186.939,208.167 185.5,211C 180.423,214.401 175.089,217.401 169.5,220C 139.906,231.046 110.739,230.213 82,217.5C 73.6285,212.26 65.4618,206.927 57.5,201.5C 54.2405,195.728 50.7405,190.062 47,184.5C 46.5172,183.552 46.3505,182.552 46.5,181.5 Z"/></g>
<g><path style="opacity:0.475" fill="#e029eb" d="M 213.5,198.5 C 213.833,198.5 214.167,198.5 214.5,198.5C 202.22,214.437 186.553,225.77 167.5,232.5C 166.833,232.5 166.5,232.167 166.5,231.5C 184.759,224.203 200.425,213.203 213.5,198.5 Z"/></g>
<g><path style="opacity:1" fill="#66616f" d="M 217.5,63.5 C 221.914,68.6559 225.581,74.3225 228.5,80.5C 238.551,102.6 241.217,125.6 236.5,149.5C 234.601,156.867 232.268,164.2 229.5,171.5C 224.911,181.023 219.578,190.023 213.5,198.5C 200.425,213.203 184.759,224.203 166.5,231.5C 158.664,233.703 150.997,236.036 143.5,238.5C 139.702,239.483 135.702,239.817 131.5,239.5C 117.28,238.782 103.28,236.449 89.5,232.5C 83.357,229.263 77.0236,226.263 70.5,223.5C 63.2327,218.078 56.066,212.411 49,206.5C 42.761,199.674 37.261,192.34 32.5,184.5C 35.1661,186.878 37.8328,189.211 40.5,191.5C 52.2839,210.62 68.9506,223.287 90.5,229.5C 99.2734,233.492 108.607,235.659 118.5,236C 147.253,237.965 172.92,230.298 195.5,213C 196.883,211.729 197.883,210.229 198.5,208.5C 200.544,206.781 202.544,205.114 204.5,203.5C 205.885,202.386 207.385,201.386 209,200.5C 215.099,192.631 220.432,184.298 225,175.5C 227.362,168.05 230.029,160.717 233,153.5C 240.779,123.314 236.112,95.3139 219,69.5C 218.495,67.4817 217.995,65.4817 217.5,63.5 Z"/></g>
<g><path style="opacity:1" fill="#411340" d="M 62.5,191.5 C 67.3797,194.107 72.3797,196.44 77.5,198.5C 77.7438,201.263 79.0771,203.429 81.5,205C 115.685,222.336 149.352,221.669 182.5,203C 184.611,201.265 186.611,199.432 188.5,197.5C 188.376,196.893 188.043,196.56 187.5,196.5C 189.336,194.412 191.669,193.079 194.5,192.5C 193.423,196.187 191.757,199.52 189.5,202.5C 187.702,204.112 185.702,205.612 183.5,207C 178.696,208.567 174.362,210.9 170.5,214C 160.127,217.854 149.461,220.52 138.5,222C 109.203,226.224 84.036,218.057 63,197.5C 61.2041,195.598 61.0374,193.598 62.5,191.5 Z"/></g>
<g><path style="opacity:1" fill="#621647" d="M 187.5,196.5 C 188.043,196.56 188.376,196.893 188.5,197.5C 186.611,199.432 184.611,201.265 182.5,203C 149.352,221.669 115.685,222.336 81.5,205C 79.0771,203.429 77.7438,201.263 77.5,198.5C 77.8333,198.5 78.1667,198.5 78.5,198.5C 81.3037,200.405 84.3037,202.071 87.5,203.5C 87.281,204.675 87.6143,205.675 88.5,206.5C 91.9655,208.489 95.6322,209.989 99.5,211C 124.058,216.749 148.058,215.082 171.5,206C 174.069,204.241 176.403,202.407 178.5,200.5C 181.256,198.796 184.256,197.463 187.5,196.5 Z"/></g>
<g><path style="opacity:1" fill="#821c4d" d="M 178.5,200.5 C 176.403,202.407 174.069,204.241 171.5,206C 148.058,215.082 124.058,216.749 99.5,211C 95.6322,209.989 91.9655,208.489 88.5,206.5C 87.6143,205.675 87.281,204.675 87.5,203.5C 93.8513,206.506 100.518,208.506 107.5,209.5C 109.042,210.301 110.708,210.634 112.5,210.5C 118.645,211.49 124.978,211.823 131.5,211.5C 142.58,211.15 153.246,209.15 163.5,205.5C 168.562,204.035 173.562,202.368 178.5,200.5 Z"/></g>
<g><path style="opacity:1" fill="#db2331" d="M 145.5,195.5 C 146.431,197.646 146.097,199.812 144.5,202C 139.156,202.471 133.822,202.971 128.5,203.5C 128.5,205.833 128.5,208.167 128.5,210.5C 123.167,210.5 117.833,210.5 112.5,210.5C 110.708,210.634 109.042,210.301 107.5,209.5C 107.719,208.325 107.386,207.325 106.5,206.5C 104.581,205.388 102.914,204.054 101.5,202.5C 107.69,202.823 113.69,202.49 119.5,201.5C 128.513,200.939 137.18,198.939 145.5,195.5 Z"/></g>
<g><path style="opacity:1" fill="#f6b3ab" d="M 155.5,201.5 C 157.84,203.202 160.507,204.535 163.5,205.5C 153.246,209.15 142.58,211.15 131.5,211.5C 139.048,207.059 147.048,203.725 155.5,201.5 Z"/></g>
<g><path style="opacity:1" fill="#b41132" d="M 78.5,198.5 C 80.5,198.833 82.5,199.167 84.5,199.5C 89.873,201.452 95.5397,202.452 101.5,202.5C 102.914,204.054 104.581,205.388 106.5,206.5C 107.386,207.325 107.719,208.325 107.5,209.5C 100.518,208.506 93.8513,206.506 87.5,203.5C 84.3037,202.071 81.3037,200.405 78.5,198.5 Z"/></g>
<g><path style="opacity:1" fill="#f3d4cd" d="M 202.5,186.5 C 199.833,188.5 197.167,190.5 194.5,192.5C 191.669,193.079 189.336,194.412 187.5,196.5C 184.256,197.463 181.256,198.796 178.5,200.5C 173.562,202.368 168.562,204.035 163.5,205.5C 160.507,204.535 157.84,203.202 155.5,201.5C 159.772,200.51 164.106,199.844 168.5,199.5C 178.101,198.305 186.768,194.971 194.5,189.5C 196.936,188.129 199.603,187.129 202.5,186.5 Z"/></g>
<g><path style="opacity:1" fill="#ed5179" d="M 80.5,189.5 C 80.8333,189.5 81.1667,189.5 81.5,189.5C 88.5351,194.182 96.2018,197.515 104.5,199.5C 109.324,201.151 114.324,201.817 119.5,201.5C 113.69,202.49 107.69,202.823 101.5,202.5C 95.5397,202.452 89.873,201.452 84.5,199.5C 85.2389,199.631 85.9056,199.464 86.5,199C 85.0001,197.885 83.3334,197.052 81.5,196.5C 80.5258,194.257 80.1924,191.924 80.5,189.5 Z"/></g>
<g><path style="opacity:1" fill="#e05d7b" d="M 194.5,189.5 C 186.768,194.971 178.101,198.305 168.5,199.5C 167.911,197.627 168.578,195.96 170.5,194.5C 178.604,193.261 186.604,191.594 194.5,189.5 Z"/></g>
<g><path style="opacity:1" fill="#f4af9f" d="M 81.5,189.5 C 82.5,189.5 83.5,189.5 84.5,189.5C 88.4338,190.36 92.4338,190.693 96.5,190.5C 97.1667,190.5 97.8333,190.5 98.5,190.5C 102.473,190.963 106.14,192.463 109.5,195C 106.885,195.612 105.219,197.112 104.5,199.5C 96.2018,197.515 88.5351,194.182 81.5,189.5 Z"/></g>
<g><path style="opacity:0.533" fill="#f4ad29" d="M 69.5,223.5 C 69.8333,223.5 70.1667,223.5 70.5,223.5C 77.0236,226.263 83.357,229.263 89.5,232.5C 88.8333,232.5 88.5,232.833 88.5,233.5C 81.6894,230.93 75.3561,227.596 69.5,223.5 Z"/></g>
<g><path style="opacity:1" fill="#3f3c53" d="M 198.5,208.5 C 197.883,210.229 196.883,211.729 195.5,213C 172.92,230.298 147.253,237.965 118.5,236C 108.607,235.659 99.2734,233.492 90.5,229.5C 98.3079,230.269 105.975,231.769 113.5,234C 125.872,234.843 138.205,234.51 150.5,233C 157.952,230.737 165.285,228.071 172.5,225C 181.294,219.707 189.961,214.207 198.5,208.5 Z"/></g>
<g><path style="opacity:0.664" fill="#e6d946" d="M 88.5,233.5 C 88.5,232.833 88.8333,232.5 89.5,232.5C 103.28,236.449 117.28,238.782 131.5,239.5C 116.93,240.465 102.596,238.465 88.5,233.5 Z"/></g>
<g><path style="opacity:0.2" fill="#bc85da" d="M 166.5,231.5 C 166.5,232.167 166.833,232.5 167.5,232.5C 159.951,235.898 151.951,237.898 143.5,238.5C 150.997,236.036 158.664,233.703 166.5,231.5 Z"/></g>
</svg>
